<svg xmlns="http://www.w3.org/2000/svg" xmlns:xlink="http://www.w3.org/1999/xlink" width="180" zoomAndPan="magnify" viewBox="0 0 135 44.999999" height="60" preserveAspectRatio="xMidYMid meet" version="1.0"><defs><g/><clipPath id="7887235e5d"><path d="M 10.351562 6.027344 L 44.851562 6.027344 L 44.851562 39.027344 L 10.351562 39.027344 Z M 10.351562 6.027344 " clip-rule="nonzero"/></clipPath><clipPath id="e35b0877f5"><path d="M 24 15.550781 L 36 15.550781 L 36 29.800781 L 24 29.800781 Z M 24 15.550781 " clip-rule="nonzero"/></clipPath></defs><g clip-path="url(#7887235e5d)"><path fill="#fe2a00" d="M 44.253906 17.054688 C 42.386719 10.152344 36.742188 6.03125 29.148438 6.03125 L 10.351562 6.03125 L 10.722656 6.882812 C 12.3125 10.550781 15.917969 12.925781 19.90625 12.925781 L 25.066406 12.925781 C 25.261719 12.910156 25.980469 12.867188 27.058594 12.867188 C 28.09375 12.867188 29.152344 12.90625 30.195312 12.988281 L 30.296875 12.996094 C 34.292969 13.3125 39.761719 14.359375 43.144531 17.558594 L 43.1875 17.597656 C 43.207031 17.613281 43.222656 17.632812 43.242188 17.648438 L 44.851562 19.257812 Z M 44.769531 25.015625 L 44.765625 25.078125 C 43.75 33.683594 37.703125 39.027344 28.980469 39.027344 L 16.988281 39.027344 L 16.988281 22.738281 L 17.59375 22.738281 C 21.105469 22.738281 23.964844 25.609375 23.964844 29.136719 L 23.964844 32.019531 L 29.273438 32.019531 C 31.890625 32.019531 34.09375 31.15625 35.648438 29.523438 C 37.226562 27.863281 38.0625 25.460938 38.0625 22.578125 L 38.0625 22.480469 C 38.0625 20.246094 37.574219 18.324219 36.609375 16.757812 L 35.710938 15.296875 L 37.324219 15.863281 C 39.328125 16.558594 40.953125 17.488281 42.15625 18.628906 C 43.910156 20.289062 44.789062 22.4375 44.769531 25.015625 " fill-opacity="1" fill-rule="nonzero"/></g><g clip-path="url(#e35b0877f5)"><path fill="#000000" d="M 30 15.550781 L 24 19.113281 L 24 19.335938 C 24 20.648438 24.210938 21.945312 24.617188 23.179688 C 24.675781 23.355469 24.738281 23.53125 24.804688 23.703125 C 24.808594 23.714844 24.8125 23.726562 24.816406 23.738281 C 24.828125 23.769531 24.839844 23.796875 24.851562 23.828125 C 24.855469 23.839844 24.863281 23.851562 24.867188 23.863281 C 24.933594 24.027344 25 24.191406 25.074219 24.355469 C 30.464844 22.523438 30.933594 19.480469 30.933594 19.480469 C 29.746094 21.722656 26.921875 22.675781 25.367188 23.03125 C 24.992188 21.929688 24.78125 20.757812 24.757812 19.558594 L 30 16.445312 L 35.242188 19.558594 C 35.167969 23.378906 33.179688 26.925781 30 28.902344 C 28.847656 28.183594 27.847656 27.261719 27.042969 26.191406 C 31.832031 22.757812 31.675781 18.667969 31.675781 18.667969 C 30.476562 23.421875 26.390625 25.09375 25.59375 25.375 C 25.726562 25.609375 25.867188 25.839844 26.015625 26.0625 C 26.019531 26.070312 26.027344 26.078125 26.03125 26.085938 C 26.058594 26.125 26.082031 26.164062 26.109375 26.199219 C 26.109375 26.203125 26.109375 26.203125 26.109375 26.203125 C 26.207031 26.34375 26.308594 26.484375 26.410156 26.621094 C 27.335938 27.859375 28.492188 28.902344 29.8125 29.6875 L 30 29.800781 L 30.1875 29.6875 C 31.953125 28.640625 33.421875 27.128906 34.441406 25.3125 C 35.460938 23.5 36 21.433594 36 19.335938 L 36 19.113281 L 30 15.550781 " fill-opacity="1" fill-rule="nonzero"/></g><g fill="#000000" fill-opacity="1"><g transform="translate(48.206348, 25.662286)"><g><path d="M 3.503906 0.0351562 L 3.84375 0.0351562 L 4.199219 -0.0117188 L 4.425781 -0.0117188 L 4.753906 -0.113281 L 5.222656 -0.195312 L 5.757812 -0.421875 L 6.519531 -0.933594 L 7.078125 -1.648438 L 7.191406 -1.878906 L 7.328125 -2.058594 L 7.507812 -2.503906 L 7.566406 -2.71875 L 7.613281 -2.957031 L 7.679688 -3.152344 L 7.714844 -3.378906 L 7.714844 -3.617188 L 7.75 -3.980469 L 7.738281 -4.3125 L 7.578125 -5.210938 L 7.429688 -5.644531 L 7.339844 -5.859375 L 6.953125 -6.460938 L 6.347656 -7.132812 L 5.769531 -7.519531 L 5.550781 -7.644531 L 5.324219 -7.691406 L 5.132812 -7.78125 L 4.890625 -7.839844 L 4.222656 -7.941406 L 1.628906 -7.964844 L 1.421875 -7.929688 L 1.195312 -7.941406 L 0.945312 -7.839844 L 0.84375 -7.601562 L 0.832031 -1.238281 L 0.851562 -1.023438 L 0.851562 -0.445312 L 0.96875 -0.0898438 L 1.195312 0.0234375 L 1.421875 0 L 2.808594 0.0234375 L 3.039062 -0.0117188 Z M 3.46875 -1.832031 L 3.253906 -1.855469 L 2.992188 -1.980469 L 2.902344 -2.195312 L 2.890625 -2.390625 L 2.902344 -2.855469 L 2.855469 -3.414062 L 2.902344 -3.980469 L 2.878906 -5.550781 L 2.902344 -5.746094 L 3.015625 -6.007812 L 3.378906 -6.085938 L 3.855469 -6.097656 L 4.1875 -6.0625 L 4.628906 -5.9375 L 4.835938 -5.835938 L 5.007812 -5.710938 L 5.175781 -5.550781 L 5.347656 -5.347656 L 5.460938 -5.152344 L 5.5625 -4.949219 L 5.746094 -3.949219 L 5.632812 -3.152344 L 5.4375 -2.730469 L 5.015625 -2.253906 L 4.628906 -2.003906 L 4.300781 -1.898438 L 3.8125 -1.84375 Z M 3.46875 -1.832031 "/></g></g></g><g fill="#000000" fill-opacity="1"><g transform="translate(58.245539, 25.662286)"><g><path d="M 3.960938 0.0351562 L 5.585938 0.0117188 L 5.824219 -0.0898438 L 5.949219 -0.328125 L 5.949219 -1.480469 L 5.824219 -1.707031 L 5.585938 -1.808594 L 5.324219 -1.785156 L 5.109375 -1.820312 L 4.527344 -1.832031 L 4.152344 -1.785156 L 3.925781 -1.808594 L 3.675781 -1.796875 L 3.457031 -1.832031 L 3.207031 -1.808594 L 2.96875 -1.921875 L 2.878906 -2.128906 L 2.878906 -2.84375 L 2.980469 -3.082031 L 3.1875 -3.207031 L 3.527344 -3.21875 L 3.890625 -3.1875 L 4.324219 -3.207031 L 4.789062 -3.195312 L 5.015625 -3.21875 L 5.277344 -3.207031 L 5.507812 -3.300781 L 5.585938 -3.527344 L 5.621094 -4.550781 L 5.507812 -4.871094 L 5.246094 -5.015625 L 4.574219 -5.015625 L 4.335938 -4.996094 L 3.855469 -5.027344 L 3.195312 -5.007812 L 2.957031 -5.109375 L 2.867188 -5.460938 L 2.867188 -5.8125 L 2.96875 -6.03125 L 3.21875 -6.121094 L 3.4375 -6.109375 L 3.652344 -6.15625 L 5.277344 -6.132812 L 5.496094 -6.144531 L 5.734375 -6.28125 L 5.847656 -6.484375 L 5.835938 -6.710938 L 5.847656 -6.941406 L 5.824219 -7.621094 L 5.722656 -7.839844 L 5.496094 -7.929688 L 5.257812 -7.929688 L 5.050781 -7.976562 L 4.128906 -7.964844 L 3.878906 -7.941406 L 3.652344 -7.964844 L 3.457031 -7.953125 L 3.230469 -7.976562 L 2.296875 -7.953125 L 2.070312 -7.988281 L 1.855469 -7.941406 L 1.648438 -7.964844 L 1.421875 -7.941406 L 1.195312 -7.953125 L 0.957031 -7.863281 L 0.832031 -7.621094 L 0.851562 -7.191406 L 0.820312 -6.722656 L 0.851562 -6.472656 L 0.832031 -5.359375 L 0.863281 -5.121094 L 0.84375 -4.902344 L 0.832031 -3.972656 L 0.863281 -3.765625 L 0.851562 -1.921875 L 0.832031 -1.707031 L 0.863281 -1.480469 L 0.832031 -0.695312 L 0.851562 -0.445312 L 0.945312 -0.136719 L 1.285156 0.0117188 L 2.105469 0.0234375 L 2.355469 0 L 2.558594 0.0117188 L 3.027344 -0.0234375 L 3.242188 0.0234375 L 3.503906 0.0351562 L 3.730469 0.0117188 Z M 3.960938 0.0351562 "/></g></g></g><g fill="#000000" fill-opacity="1"><g transform="translate(66.534184, 25.662286)"><g><path d="M 0.832031 -0.328125 L 0.945312 -0.113281 L 1.195312 0 L 1.992188 0.0351562 L 2.558594 -0.0117188 L 2.800781 -0.113281 L 2.933594 -0.457031 L 2.902344 -0.820312 L 2.925781 -1.035156 L 2.914062 -2.242188 L 3.015625 -2.46875 L 3.242188 -2.570312 L 3.492188 -2.59375 L 3.730469 -2.546875 L 3.960938 -2.59375 L 4.1875 -2.570312 L 4.425781 -2.582031 L 4.652344 -2.558594 L 5.121094 -2.582031 L 5.359375 -2.695312 L 5.472656 -3.050781 L 5.460938 -4.0625 L 5.347656 -4.289062 L 5.109375 -4.378906 L 4.550781 -4.402344 L 3.949219 -4.359375 L 3.503906 -4.414062 L 3.253906 -4.402344 L 3.027344 -4.492188 L 2.902344 -4.734375 L 2.902344 -5.050781 L 2.925781 -5.269531 L 2.902344 -5.78125 L 3.015625 -6.007812 L 3.230469 -6.15625 L 3.59375 -6.15625 L 3.925781 -6.132812 L 4.128906 -6.144531 L 4.359375 -6.132812 L 4.597656 -6.15625 L 5.460938 -6.132812 L 5.6875 -6.246094 L 5.800781 -6.472656 L 5.78125 -7.054688 L 5.800781 -7.488281 L 5.664062 -7.828125 L 5.472656 -7.953125 L 4.789062 -7.941406 L 4.539062 -7.976562 L 4.097656 -7.953125 L 3.890625 -7.976562 L 3.550781 -7.953125 L 3.320312 -7.964844 L 2.96875 -7.941406 L 2.527344 -7.941406 L 2.320312 -7.964844 L 1.742188 -7.964844 L 1.5 -7.941406 L 1.183594 -7.953125 L 0.933594 -7.828125 L 0.863281 -7.621094 L 0.832031 -7.15625 L 0.863281 -6.816406 L 0.820312 -5.539062 L 0.84375 -5.347656 L 0.851562 -5.109375 L 0.832031 -4.902344 L 0.851562 -4.640625 L 0.832031 -4.4375 L 0.820312 -4.222656 L 0.84375 -4.003906 L 0.820312 -3.742188 Z M 0.832031 -0.328125 "/></g></g></g><g fill="#000000" fill-opacity="1"><g transform="translate(74.504546, 25.662286)"><g><path d="M 0.851562 -0.464844 L 0.96875 -0.113281 L 1.296875 0.0351562 L 1.523438 0 L 1.886719 0.0351562 L 2.070312 0.0117188 L 2.410156 0.0117188 L 2.777344 -0.101562 L 2.878906 -0.433594 L 2.878906 -0.820312 L 2.902344 -1.023438 L 2.867188 -1.261719 L 2.890625 -1.992188 L 2.992188 -2.21875 L 3.207031 -2.34375 L 3.867188 -2.253906 L 4.097656 -2.058594 L 4.234375 -1.832031 L 4.324219 -1.628906 L 4.5625 -1.285156 L 4.777344 -0.875 L 4.902344 -0.707031 L 4.996094 -0.476562 L 5.121094 -0.285156 L 5.371094 -0.078125 L 5.757812 0.0234375 L 6.65625 0.0117188 L 6.871094 0.0351562 L 7.246094 0.0234375 L 7.464844 -0.078125 L 7.53125 -0.328125 L 7.40625 -0.582031 L 7.269531 -0.738281 L 7.179688 -0.957031 L 6.792969 -1.535156 L 6.691406 -1.742188 L 6.324219 -2.332031 L 6.1875 -2.503906 L 6.179688 -2.777344 L 6.28125 -3.027344 L 6.441406 -3.195312 L 6.597656 -3.332031 L 7.042969 -4.128906 L 7.191406 -4.789062 L 7.167969 -5.507812 L 7.132812 -5.734375 L 6.929688 -6.382812 L 6.835938 -6.578125 L 6.710938 -6.757812 L 6.0625 -7.441406 L 5.664062 -7.65625 L 5.234375 -7.804688 L 4.585938 -7.953125 L 4.222656 -7.964844 L 3.890625 -7.941406 L 3.207031 -7.941406 L 2.980469 -7.988281 L 2.753906 -7.988281 L 2.546875 -7.929688 L 2.320312 -7.929688 L 2.09375 -7.976562 L 1.84375 -7.988281 L 1.171875 -7.929688 L 0.96875 -7.816406 L 0.832031 -7.496094 L 0.84375 -4.890625 L 0.863281 -4.664062 L 0.832031 -4.210938 L 0.84375 -3.960938 L 0.84375 -3.730469 L 0.863281 -3.515625 L 0.84375 -3.300781 L 0.832031 -2.378906 L 0.851562 -2.148438 Z M 3.207031 -4.164062 L 2.980469 -4.289062 L 2.890625 -4.472656 L 2.890625 -5.152344 L 2.867188 -5.347656 L 2.890625 -5.824219 L 2.992188 -6.042969 L 3.230469 -6.132812 L 3.457031 -6.121094 L 3.914062 -6.167969 L 4.234375 -6.097656 L 4.527344 -6.074219 L 4.746094 -6.019531 L 5.027344 -5.664062 L 5.097656 -5.484375 L 5.144531 -5.1875 L 5.109375 -4.847656 L 5.007812 -4.621094 L 4.882812 -4.449219 L 4.753906 -4.347656 L 4.550781 -4.253906 L 4.222656 -4.175781 L 4.003906 -4.164062 L 3.457031 -4.1875 Z M 3.207031 -4.164062 "/></g></g></g><g fill="#000000" fill-opacity="1"><g transform="translate(84.168623, 25.662286)"><g><path d="M 4.5625 0.148438 L 5.574219 0.046875 L 6.007812 -0.0898438 L 7.019531 -0.546875 L 7.816406 -1.308594 L 7.964844 -1.511719 L 8.40625 -2.296875 L 8.488281 -2.515625 L 8.523438 -2.742188 L 8.589844 -2.925781 L 8.636719 -3.175781 L 8.691406 -3.972656 L 8.636719 -4.753906 L 8.542969 -5.175781 L 8.453125 -5.414062 L 8.398438 -5.675781 L 8.191406 -6.054688 L 8.113281 -6.257812 L 7.964844 -6.449219 L 7.828125 -6.585938 L 7.679688 -6.792969 L 7.191406 -7.234375 L 6.609375 -7.601562 L 5.121094 -8.066406 L 4.585938 -8.078125 L 3.789062 -8.03125 L 3.5625 -7.988281 L 3.332031 -7.917969 L 3.128906 -7.828125 L 2.695312 -7.714844 L 2.117188 -7.351562 L 1.957031 -7.214844 L 1.59375 -6.964844 L 1.285156 -6.621094 L 0.898438 -6.054688 L 0.796875 -5.859375 L 0.582031 -5.234375 L 0.488281 -4.746094 L 0.445312 -3.425781 L 0.570312 -2.707031 L 0.738281 -2.320312 L 0.808594 -2.082031 L 0.921875 -1.878906 L 1.457031 -1.148438 L 1.773438 -0.84375 L 1.921875 -0.671875 L 2.695312 -0.261719 L 2.914062 -0.171875 L 3.878906 0.113281 Z M 4.242188 -1.855469 L 4.015625 -1.933594 L 3.8125 -1.957031 L 3.425781 -2.160156 L 3.070312 -2.46875 L 2.957031 -2.628906 L 2.808594 -2.789062 L 2.59375 -3.425781 L 2.539062 -3.992188 L 2.546875 -4.335938 L 2.628906 -4.753906 L 2.695312 -4.960938 L 2.832031 -5.121094 L 2.933594 -5.3125 L 3.082031 -5.496094 L 3.253906 -5.644531 L 3.582031 -5.871094 L 3.789062 -5.972656 L 4.027344 -6.03125 L 4.550781 -6.074219 L 5.097656 -6.042969 L 5.699219 -5.78125 L 6.054688 -5.519531 L 6.316406 -5.132812 L 6.40625 -4.925781 L 6.472656 -4.699219 L 6.554688 -4.492188 L 6.597656 -4.003906 L 6.53125 -3.4375 L 6.429688 -2.96875 L 6.304688 -2.800781 L 6.199219 -2.628906 L 6.0625 -2.421875 L 5.710938 -2.148438 L 5.507812 -2.058594 L 5.324219 -1.957031 L 5.121094 -1.933594 L 4.902344 -1.878906 Z M 4.242188 -1.855469 "/></g></g></g><g fill="#000000" fill-opacity="1"><g transform="translate(95.060365, 25.662286)"><g><path d="M 6.710938 -0.195312 L 7.019531 -0.0117188 L 7.339844 0.0234375 L 7.589844 -0.0585938 L 7.703125 -0.285156 L 7.726562 -4.4375 L 7.691406 -4.628906 L 7.691406 -5.757812 L 7.726562 -6.03125 L 7.691406 -7.613281 L 7.578125 -7.839844 L 7.351562 -7.964844 L 5.9375 -7.953125 L 5.722656 -7.828125 L 5.597656 -7.589844 L 5.585938 -7.351562 L 5.621094 -7.167969 L 5.585938 -6.691406 L 5.609375 -6.441406 L 5.585938 -4.402344 L 5.519531 -4.210938 L 5.347656 -4.289062 L 4.539062 -5.097656 L 4.222656 -5.347656 L 1.980469 -7.613281 L 1.808594 -7.75 L 1.546875 -7.882812 L 1.207031 -7.964844 L 0.945312 -7.851562 L 0.84375 -7.632812 L 0.84375 -4.1875 L 0.832031 -3.992188 L 0.851562 -3.527344 L 0.820312 -3.332031 L 0.84375 -1.46875 L 0.820312 -1.25 L 0.84375 -0.296875 L 0.945312 -0.078125 L 1.183594 0 L 1.648438 0.0234375 L 1.898438 0 L 2.34375 0.0351562 L 2.582031 0.0234375 L 2.808594 -0.0898438 L 2.925781 -0.445312 L 2.933594 -3.320312 L 2.957031 -3.550781 L 3.039062 -3.742188 L 3.1875 -3.6875 L 3.332031 -3.492188 L 4.140625 -2.71875 L 4.289062 -2.546875 L 4.484375 -2.421875 L 6.246094 -0.671875 L 6.542969 -0.339844 Z M 6.710938 -0.195312 "/></g></g></g><g fill="#000000" fill-opacity="1"><g transform="translate(105.406473, 25.662286)"><g><path d="M 3.8125 0.046875 L 4.265625 0.0234375 L 4.472656 -0.0898438 L 4.585938 -0.308594 L 4.585938 -1.433594 L 4.449219 -1.648438 L 4.199219 -1.773438 L 3.960938 -1.773438 L 3.6875 -1.867188 L 3.550781 -2.128906 L 3.582031 -2.34375 L 3.574219 -3.59375 L 3.59375 -3.84375 L 3.550781 -4.664062 L 3.59375 -5.8125 L 3.675781 -6.074219 L 3.925781 -6.179688 L 4.152344 -6.210938 L 4.390625 -6.304688 L 4.503906 -6.484375 L 4.515625 -7.613281 L 4.378906 -7.828125 L 4.175781 -7.953125 L 2.800781 -7.953125 L 2.59375 -7.976562 L 2.367188 -7.929688 L 1.433594 -7.929688 L 1.21875 -7.964844 L 0.957031 -7.964844 L 0.726562 -7.851562 L 0.613281 -7.578125 L 0.648438 -6.734375 L 0.625 -6.519531 L 0.75 -6.292969 L 1 -6.167969 L 1.230469 -6.167969 L 1.445312 -6.03125 L 1.546875 -5.722656 L 1.582031 -2.230469 L 1.457031 -1.886719 L 0.707031 -1.660156 L 0.582031 -1.457031 L 0.546875 -0.410156 L 0.660156 -0.101562 L 0.886719 0 L 1.105469 0 L 1.320312 -0.0234375 L 1.648438 0.0234375 L 2.003906 0.0117188 L 2.230469 -0.0117188 L 2.683594 0.0351562 L 3.027344 -0.0117188 L 3.582031 -0.0117188 Z M 3.8125 0.046875 "/></g></g></g><g fill="#000000" fill-opacity="1"><g transform="translate(112.342428, 25.662286)"><g><path d="M 0.148438 -0.285156 L 0.183594 -0.0585938 L 0.386719 0.0234375 L 1.582031 0.0117188 L 1.921875 -0.0234375 L 2.183594 -0.101562 L 2.433594 -0.285156 L 2.527344 -0.464844 L 2.652344 -0.636719 L 2.753906 -0.863281 L 3.082031 -1.421875 L 3.1875 -1.636719 L 3.332031 -1.785156 L 3.550781 -2.21875 L 3.675781 -2.390625 L 3.8125 -2.378906 L 3.949219 -2.207031 L 5.085938 -0.296875 L 5.300781 -0.078125 L 5.574219 0.046875 L 6.882812 -0.0234375 L 7.109375 0.0117188 L 7.339844 -0.046875 L 7.371094 -0.308594 L 7.234375 -0.589844 L 6.984375 -0.957031 L 6.882812 -1.148438 L 6.484375 -1.695312 L 6.40625 -1.84375 L 6.257812 -2.046875 L 6.042969 -2.445312 L 5.699219 -2.890625 L 5.175781 -3.765625 L 5.039062 -3.9375 L 4.972656 -4.222656 L 5.027344 -4.492188 L 5.1875 -4.699219 L 5.414062 -5.050781 L 5.53125 -5.269531 L 6.335938 -6.417969 L 6.441406 -6.621094 L 7.097656 -7.644531 L 7.042969 -7.882812 L 6.792969 -7.964844 L 6.429688 -7.941406 L 5.609375 -7.976562 L 5.394531 -7.953125 L 5.121094 -7.851562 L 4.859375 -7.679688 L 4.765625 -7.464844 L 4.390625 -6.941406 L 4.3125 -6.710938 L 3.800781 -5.996094 L 3.640625 -5.960938 L 3.527344 -6.144531 L 3.414062 -6.371094 L 3.289062 -6.519531 L 3.207031 -6.722656 L 2.628906 -7.65625 L 2.390625 -7.851562 L 2.117188 -7.976562 L 1.867188 -7.941406 L 1.636719 -7.941406 L 1.375 -7.976562 L 1.023438 -7.929688 L 0.683594 -7.941406 L 0.421875 -7.875 L 0.398438 -7.621094 L 0.511719 -7.371094 L 0.796875 -6.996094 L 0.976562 -6.667969 L 1.296875 -6.222656 L 1.535156 -5.8125 L 1.671875 -5.644531 L 1.796875 -5.425781 L 1.933594 -5.257812 L 2.160156 -4.871094 L 2.320312 -4.664062 L 2.421875 -4.492188 L 2.492188 -4.1875 L 2.445312 -3.9375 L 2.183594 -3.5625 L 1.957031 -3.152344 L 1.84375 -3.015625 L 1.730469 -2.808594 L 1.582031 -2.664062 L 1.355469 -2.253906 L 1.21875 -2.082031 L 0.851562 -1.480469 L 0.601562 -1.136719 L 0.488281 -0.921875 L 0.363281 -0.761719 L 0.25 -0.546875 Z M 0.148438 -0.285156 "/></g></g></g><g fill="#000000" fill-opacity="1"><g transform="translate(50.747209, 32.015751)"><g><path d="M 2.441406 -1.023438 C 2.316406 -0.757812 2.015625 -0.574219 1.707031 -0.574219 C 1.21875 -0.574219 0.828125 -0.992188 0.828125 -1.507812 C 0.828125 -2.015625 1.21875 -2.4375 1.707031 -2.4375 C 2.011719 -2.4375 2.3125 -2.269531 2.4375 -2 L 3.175781 -2 C 2.972656 -2.613281 2.394531 -3.058594 1.707031 -3.058594 C 0.851562 -3.058594 0.15625 -2.363281 0.15625 -1.507812 C 0.15625 -0.652344 0.851562 0.0429688 1.707031 0.0429688 C 2.394531 0.0429688 2.976562 -0.402344 3.183594 -1.023438 Z M 2.441406 -1.023438 "/></g></g></g><g fill="#000000" fill-opacity="1"><g transform="translate(56.485851, 32.015751)"><g><path d="M 1.148438 0 L 1.8125 0 L 1.8125 -1.441406 L 2.925781 -3.011719 L 2.132812 -3.011719 L 1.480469 -1.972656 L 0.828125 -3.011719 L 0.0351562 -3.011719 L 1.148438 -1.441406 Z M 1.148438 0 "/></g></g></g><g fill="#000000" fill-opacity="1"><g transform="translate(61.892138, 32.015751)"><g><path d="M 1.71875 -0.882812 C 1.71875 -0.683594 1.550781 -0.519531 1.351562 -0.519531 L 0.929688 -0.519531 L 0.929688 -1.246094 L 1.351562 -1.246094 C 1.550781 -1.246094 1.71875 -1.078125 1.71875 -0.882812 Z M 1.511719 -2.140625 C 1.511719 -1.949219 1.351562 -1.789062 1.160156 -1.789062 L 0.929688 -1.789062 L 0.929688 -2.492188 L 1.160156 -2.492188 C 1.351562 -2.492188 1.511719 -2.335938 1.511719 -2.140625 Z M 2.398438 -0.863281 C 2.398438 -1.273438 2.121094 -1.542969 1.785156 -1.621094 C 2.011719 -1.722656 2.144531 -1.953125 2.144531 -2.261719 C 2.144531 -2.671875 1.816406 -3.011719 1.304688 -3.011719 L 0.265625 -3.011719 L 0.265625 0 L 1.484375 0 C 2.0625 0 2.398438 -0.34375 2.398438 -0.863281 Z M 2.398438 -0.863281 "/></g></g></g><g fill="#000000" fill-opacity="1"><g transform="translate(66.779952, 32.015751)"><g><path d="M 2.011719 -0.601562 L 0.929688 -0.601562 L 0.929688 -1.210938 L 1.96875 -1.210938 L 1.96875 -1.8125 L 0.929688 -1.8125 L 0.929688 -2.410156 L 2.011719 -2.410156 L 2.011719 -3.011719 L 0.265625 -3.011719 L 0.265625 0 L 2.011719 0 Z M 2.011719 -0.601562 "/></g></g></g><g fill="#000000" fill-opacity="1"><g transform="translate(71.503805, 32.015751)"><g><path d="M 0.929688 -1.078125 L 0.933594 -1.078125 L 1.652344 0 L 2.496094 0 L 1.628906 -1.109375 C 2.011719 -1.199219 2.316406 -1.539062 2.316406 -2.046875 C 2.316406 -2.617188 1.882812 -3.011719 1.394531 -3.011719 L 0.265625 -3.011719 L 0.265625 0 L 0.929688 0 Z M 1.285156 -2.492188 C 1.480469 -2.492188 1.683594 -2.320312 1.683594 -2.046875 C 1.683594 -1.757812 1.480469 -1.601562 1.285156 -1.601562 L 0.929688 -1.601562 L 0.929688 -2.492188 Z M 1.285156 -2.492188 "/></g></g></g><g fill="#000000" fill-opacity="1"><g transform="translate(76.391619, 32.015751)"><g/></g></g><g fill="#000000" fill-opacity="1"><g transform="translate(79.945581, 32.015751)"><g><path d="M 1.4375 -0.46875 C 1.109375 -0.46875 0.824219 -0.632812 0.804688 -0.992188 L 0.132812 -0.992188 C 0.136719 -0.257812 0.746094 0.0703125 1.410156 0.0703125 C 2.023438 0.0703125 2.660156 -0.191406 2.660156 -0.898438 C 2.660156 -2.046875 0.917969 -1.660156 0.917969 -2.199219 C 0.917969 -2.425781 1.179688 -2.511719 1.363281 -2.511719 C 1.695312 -2.511719 1.878906 -2.410156 1.914062 -2.097656 L 2.558594 -2.097656 C 2.535156 -2.78125 1.976562 -3.058594 1.355469 -3.058594 C 0.804688 -3.058594 0.230469 -2.765625 0.230469 -2.144531 C 0.230469 -1.03125 1.972656 -1.410156 1.972656 -0.824219 C 1.972656 -0.554688 1.644531 -0.46875 1.4375 -0.46875 Z M 1.4375 -0.46875 "/></g></g></g><g fill="#000000" fill-opacity="1"><g transform="translate(85.183478, 32.015751)"><g><path d="M 2.011719 -0.601562 L 0.929688 -0.601562 L 0.929688 -1.210938 L 1.96875 -1.210938 L 1.96875 -1.8125 L 0.929688 -1.8125 L 0.929688 -2.410156 L 2.011719 -2.410156 L 2.011719 -3.011719 L 0.265625 -3.011719 L 0.265625 0 L 2.011719 0 Z M 2.011719 -0.601562 "/></g></g></g><g fill="#000000" fill-opacity="1"><g transform="translate(89.907331, 32.015751)"><g><path d="M 2.441406 -1.023438 C 2.316406 -0.757812 2.015625 -0.574219 1.707031 -0.574219 C 1.21875 -0.574219 0.828125 -0.992188 0.828125 -1.507812 C 0.828125 -2.015625 1.21875 -2.4375 1.707031 -2.4375 C 2.011719 -2.4375 2.3125 -2.269531 2.4375 -2 L 3.175781 -2 C 2.972656 -2.613281 2.394531 -3.058594 1.707031 -3.058594 C 0.851562 -3.058594 0.15625 -2.363281 0.15625 -1.507812 C 0.15625 -0.652344 0.851562 0.0429688 1.707031 0.0429688 C 2.394531 0.0429688 2.976562 -0.402344 3.183594 -1.023438 Z M 2.441406 -1.023438 "/></g></g></g><g fill="#000000" fill-opacity="1"><g transform="translate(95.645974, 32.015751)"><g><path d="M 2.023438 -3.011719 L 2.023438 -1.273438 C 2.023438 -0.855469 1.902344 -0.621094 1.445312 -0.621094 C 0.992188 -0.621094 0.863281 -0.855469 0.863281 -1.273438 L 0.863281 -3.011719 L 0.199219 -3.011719 L 0.199219 -1.175781 C 0.199219 -0.371094 0.660156 0.0429688 1.445312 0.0429688 C 2.230469 0.0429688 2.691406 -0.371094 2.691406 -1.175781 L 2.691406 -3.011719 Z M 2.023438 -3.011719 "/></g></g></g><g fill="#000000" fill-opacity="1"><g transform="translate(100.981358, 32.015751)"><g><path d="M 0.929688 -1.078125 L 0.933594 -1.078125 L 1.652344 0 L 2.496094 0 L 1.628906 -1.109375 C 2.011719 -1.199219 2.316406 -1.539062 2.316406 -2.046875 C 2.316406 -2.617188 1.882812 -3.011719 1.394531 -3.011719 L 0.265625 -3.011719 L 0.265625 0 L 0.929688 0 Z M 1.285156 -2.492188 C 1.480469 -2.492188 1.683594 -2.320312 1.683594 -2.046875 C 1.683594 -1.757812 1.480469 -1.601562 1.285156 -1.601562 L 0.929688 -1.601562 L 0.929688 -2.492188 Z M 1.285156 -2.492188 "/></g></g></g><g fill="#000000" fill-opacity="1"><g transform="translate(105.869169, 32.015751)"><g><path d="M 0.929688 0 L 0.929688 -3.011719 L 0.265625 -3.011719 L 0.265625 0 Z M 0.929688 0 "/></g></g></g><g fill="#000000" fill-opacity="1"><g transform="translate(109.511758, 32.015751)"><g><path d="M 1.546875 -2.410156 L 2.40625 -2.410156 L 2.40625 -3.011719 L 0.0234375 -3.011719 L 0.0234375 -2.410156 L 0.882812 -2.410156 L 0.882812 0 L 1.546875 0 Z M 1.546875 -2.410156 "/></g></g></g><g fill="#000000" fill-opacity="1"><g transform="translate(114.386276, 32.015751)"><g><path d="M 1.148438 0 L 1.8125 0 L 1.8125 -1.441406 L 2.925781 -3.011719 L 2.132812 -3.011719 L 1.480469 -1.972656 L 0.828125 -3.011719 L 0.0351562 -3.011719 L 1.148438 -1.441406 Z M 1.148438 0 "/></g></g></g></svg>